/* XPM */
static char *result[] = {
/* columns rows colors chars-per-pixel */
"16 16 10 1 ",
"  c black",
". c gray9",
"X c #2C2C2C",
"o c gray35",
"O c #86FF00",
"+ c #B1D354",
"@ c #BAA58C",
"# c #E2D8BD",
"$ c #EAF4E3",
"% c #FFFFEB",
/* pixels */
"+++++.++++++++++",
"++++.%.....+++++",
"++++.%%.@#%.++++",
"++++..#@##%.++++",
"+++.oo.@%%#.++++",
"+++.oo.@. $.++++",
"+++.Xoo. O#.++++",
"++++.oooo @.++++",
"+++++.XXXo .++++",
"++++.XooXXX.++++",
"++++.XooXoo.++++",
"++++.oXXooo.++++",
"++++.XooooX.++++",
"+++++......+++++",
"++++++++++++++++",
"++++++++++++++++"
};
