/* XPM */
static char * border_xpm[] = {
"16 16 5 1",
" 	c #C3D657",
".	c #AD9847",
"+	c #FFF673",
"@	c #EACE60",
"#	c #7F7035",
"                ",
"  .. .. ... ..  ",
" .++.++.+++.++. ",
" .++@++@+++@++. ",
" .++++++++++++. ",
" .++++++++++++. ",
" .++++++++++++. ",
" .++++++++++++. ",
" .+++++@+++@++. ",
" .++@+++++++++. ",
" .+++++@++++++. ",
" .++@++@+++@++. ",
" #@@@@@@@@@@@@# ",
" #@@@@@@@@@@@@# ",
" #@@@@@@@@@@@@# ",
"                "};
