/* XPM */
static char *_2a5a3c451a2436cca83514b0545d8e2iJvzTG1HG0PvLixw[] = {
/* columns rows colors chars-per-pixel */
"16 16 15 1 ",
"  c #C3D657",
". c #CBD66F",
"X c #D9D48C",
"o c #D4D69A",
"O c #CFBF82",
"+ c #B78356",
"@ c #C9AD77",
"# c #CEA272",
"$ c #A5734D",
"% c #805A42",
"& c #349AA4",
"* c #4BD3CF",
"= c #42ACAF",
"- c #4EBCB9",
"; c #97000A",
/* pixels */
"     ..      ...",
"    .....   ....",
"XooXXOooo  OXooX",
"+OooXOooO@@ooo@+",
"+@@@+#@@@@#++@++",
"++@+###@OOO+O@++",
"+OOO$+@OOO++OO$+",
"@@O@+$###+$+@+$+",
"#@@#+$++++%$++$%",
"$##+$%+@@$%%$$%%",
"%$$$%$@@@@$$%$%%",
"&%%%%$+@@++%%%%&",
"*****%%%%%%&&&**",
"&&&&&*********&&",
"====&&&&&&&&&&&=",
"---============="
};
