/* XPM */
static char *result[] = {
/* columns rows colors chars-per-pixel */
"16 16 12 1 ",
"  c #4EBCB9",
". c #349AA4",
"X c #4BD3CF",
"o c #B78356",
"O c #A5734D",
"+ c #CFBF82",
"@ c #D4D69A",
"# c #805A42",
"$ c #D9D48C",
"% c #CBD66F",
"& c #C3D657",
"* c #97000A",
/* pixels */
"                ",
"                ",
"                ",
"                ",
"                ",
"....      ......",
"XXXX......XXXXXX",
"oooOXXXXXXoooOOO",
"+@@+OOO##O+$@@@+",
"@@@$$$+$$+$$$@@@",
"%@%%$$%%&&++&&&%",
"%%&&&%%%&&&&&&&%",
"&&&&&&&&&&&&&&%%",
"&&&&&&&&&&&&&&%%",
"&&&&&&&&&&&&&&&&",
"&&&&&&&&&&&&&&&&"
};
