/* XPM */
static char *bd9eb31216a045ca8305436da43d982aLQRO3XDLz8cahll8[] = {
/* columns rows colors chars-per-pixel */
"16 16 14 1 ",
"  c #C3D657",
". c #CBD66F",
"X c #CFBF82",
"o c #D9D48C",
"O c #B78356",
"+ c #CEA272",
"@ c #805A42",
"# c #349AA4",
"$ c #4BD3CF",
"% c #42ACAF",
"& c #4EBCB9",
"* c #C9AD77",
"= c #A5734D",
"- c #97000A",
/* pixels */
"  .XXoXO++@#$#%&",
". X*ooX=++=@#$&%",
"*oooXooO=+=@#$#%",
"**ooOXXO=O=@#$#%",
"+*XXO=O*X+@##$#%",
"+XXXO==XX+=@$##%",
"OO**===X*OO@$#%%",
"O=OO*==*+OO@$#%%",
"===***=OOOO@$#%&",
"=@=O++O=OO@#$#%&",
"@@@=OO=@@@#$##%&",
"#@@@==@@##$##%%&",
"$$$$####$$##%%&&",
"####$$$$###%%&&&",
"%%%#####%%%%&&&&",
"&&%%%%%%%&&&&&&&"
};
