/* XPM */
static char *_cbb3c50fb7342178fac2c3569fa5f0aek9cg6e7IMDEm4qV[] = {
/* columns rows colors chars-per-pixel */
"16 16 15 1 ",
"  c #4EBCB9",
". c #42ACAF",
"X c #349AA4",
"o c #4BD3CF",
"O c #A5734D",
"+ c #B78356",
"@ c #C9AD77",
"# c #CEA272",
"$ c #CFBF82",
"% c #CBD66F",
"& c #B1D354",
"* c #805A42",
"= c #D9D48C",
"- c #D4D69A",
"; c #97000A",
/* pixels */
" .XoXO+@+#$%%&&&",
" .XoXO+@@$#$$%&&",
" .XoX*O+=$@$%%&&",
"..XoX*O+==@=%%%&",
".XoXOO+@$=@=%%&&",
".XoX*+$@#$-=&&&&",
".XoX*+$$+$--&&&&",
".XoX*@$$+@--%&&&",
".XXoO@@$++=-%&&&",
"..XoO++@++$&&&&&",
" .XoO++++@@$&&&&",
" .XoO++O+$@$&&&&",
" .XoXO*+@$#$&&&&",
" .XoXX*+$$$%&&&&",
" .XoXXO@$$$%-&&&",
"..XoXO+$$@---%&&"
};
