/* XPM */
static char *result[] = {
/* columns rows colors chars-per-pixel */
"16 16 10 1 ",
"  c gray9",
". c #515151",
"X c #99703B",
"o c #D3A061",
"O c #B1D354",
"+ c #818181",
"@ c gray65",
"# c #B1B1B1",
"$ c #C6C6C6",
"% c #F4F4F4",
/* pixels */
"OOOOOOOOOOOOOOOO",
"OOOOOOOOOOOOOOOO",
"OOOOOO    OOOOOO",
"OOOOO #### OOOOO",
"OOOO +####+ OOOO",
"OOOO ++##++ OOOO",
"OOOO ++++++  OOO",
"OOOO ++++++ % OO",
"OO   ...... % OO",
"O XoX@$$$$@ % OO",
"O oo@$$$$$$@% OO",
"O oo@$$$$$$@oX O",
"O Xo@$$$$$$@# OO",
"OO           OOO",
"OOOOOOOOOOOOOOOO",
"OOOOOOOOOOOOOOOO"
};
