/* XPM */
static char *result[] = {
/* columns rows colors chars-per-pixel */
"16 16 23 1 ",
"  c gray9",
". c #515151",
"X c #99703B",
"o c #D3A061",
"O c #AFD252",
"+ c #AED253",
"@ c #ADD256",
"# c #B0D252",
"$ c #B0D353",
"% c #B2D352",
"& c #B2D353",
"* c #B3D353",
"= c #B4D353",
"- c #B4D453",
"; c #B0D354",
": c #B1D354",
"> c #B2D354",
", c #B3D455",
"< c #B3D456",
"1 c #B8D75A",
"2 c #818181",
"3 c #B1B1B1",
"4 c #F4F4F4",
/* pixels */
"::::::::::::::::",
"::::::    ::::::",
"::::: 3333 :::::",
":::: 233332 $:::",
"::;, 222222 <:::",
"::#  233332 1O::",
":: 4 3    3 +:::",
":: 4 23  32   ::",
":: 4 .3  3.XoX :",
":: 42322223ooo :",
": XoX333333ooo *",
":: 3 233332XoX =",
":::  32  23   @>",
":::::  ::  O%-&:",
"::::::::::::::::",
"::::::::::::::::"
};
