/* XPM */
static char *result[] = {
/* columns rows colors chars-per-pixel */
"16 16 24 1 ",
"  c gray9",
". c #515151",
"X c #99703B",
"o c #D3A061",
"O c #9BCF5E",
"+ c #AFD252",
"@ c #AAD054",
"# c #AFD255",
"$ c #B2D353",
"% c #B3D353",
"& c #B4D451",
"* c #B4D452",
"= c #B5D452",
"- c #B1D354",
"; c #B2D354",
": c #B2D455",
"> c #B8D656",
", c #91CE64",
"< c #9DD165",
"1 c #C2DE67",
"2 c #818181",
"3 c gray65",
"4 c #B1B1B1",
"5 c #C6C6C6",
/* pixels */
"----------------",
"------    ------",
"----- 4444 -----",
"---- 244442 ----",
"---- 222222 ----",
"---: 442222 +---",
"---#   4222 ----",
"----  42222 &---",
"--- oX4... <>$--",
"--- oo.4235 1@;-",
"--- oo42.355 ,=-",
"--- oX2. 355 O*-",
"----   42    %--",
"-------  -------",
"----------------",
"----------------"
};
