/* XPM */
static char *result[] = {
/* columns rows colors chars-per-pixel */
"16 16 16 1 ",
"  c gray9",
". c #515151",
"X c #99703B",
"o c #D3A061",
"O c #AED151",
"+ c #AFD253",
"@ c #B0D252",
"# c #B0D353",
"$ c #B2D352",
"% c #B5D453",
"& c #B1D354",
"* c #B2D355",
"= c #B7D659",
"- c #818181",
"; c #B1B1B1",
": c #F4F4F4",
/* pixels */
"&&&&&&&&&&&&&&&&",
"&&&&&&&&&&&&&&&&",
"&&&&&&    &&&&&&",
"&&&&& ;;;; &&&&&",
"&&&# -;;;;- *&&&",
"&&@= ------ O&&&",
"&&$  -;;;;- +&&&",
"&& : ;    ; %&&&",
"&& : -;  ;-   &&",
"&& : .;  ;.XoX &",
"&& :-;----;ooo &",
"& XoX-;;;;-ooo &",
"&& ; ;-  -;XoX &",
"&&&    &&     &&",
"&&&&&&&&&&&&&&&&",
"&&&&&&&&&&&&&&&&"
};
